<svg width="995" height="130" viewBox="0 0 995 130" fill="none" xmlns="http://www.w3.org/2000/svg">
<path d="M777.75 0V7.875H785.25V0H777.75ZM775.875 9.75H768V17.25H775.875V9.75ZM777.75 17.25V9.75H785.25V17.25H777.75ZM775.875 19.125H768V22.3125C768 23.5557 768.494 24.748 769.373 25.6271C770.252 26.5061 771.444 27 772.688 27H775.875V19.125ZM777.75 27H785.25V19.125H777.75V27ZM787.125 27V19.125H795V22.3125C795 23.5557 794.506 24.748 793.627 25.6271C792.748 26.5061 791.556 27 790.312 27H787.125ZM795 9.75V17.25H787.125V9.75H795ZM795 7.875V4.6875C795 3.4443 794.506 2.25201 793.627 1.37294C792.748 0.49386 791.556 0 790.312 0H787.125V7.875H795Z" fill="#83C403"/>
<path d="M13.1295 130C10.0202 130 7.00636 128.772 4.08804 126.327C1.36666 123.883 0 120.718 0 116.845C0 115.215 0.29243 113.479 0.877287 111.643L37.6338 11.012C38.9945 7.34548 41.2325 4.58779 44.3418 2.75769C47.4511 0.921319 50.6619 0 53.9681 0C57.4713 0 60.7775 0.921319 63.8868 2.75769C67.1931 4.58779 69.5265 7.34548 70.8872 11.012L110.27 111.035C110.658 111.849 110.849 112.664 110.849 113.479C110.849 114.294 110.849 115.115 110.849 115.93C110.849 120.21 109.488 123.576 106.766 126.02C104.045 128.471 101.031 129.693 97.7251 129.693C95.3916 129.693 93.0581 128.978 90.7246 127.549C88.5822 126.327 87.0305 124.29 86.0577 121.432L77.5952 97.5721C77.4042 96.3499 76.6224 95.742 75.2617 95.742H35.8852C34.5186 95.742 33.6473 96.3499 33.2593 97.5721L25.0892 121.739C23.7285 124.391 21.9799 126.428 19.8374 127.857C17.7009 129.286 15.4629 130 13.1295 130ZM46.3828 71.8817H63.5944C64.7641 71.8817 65.6354 71.4743 66.2203 70.6595C66.9961 69.6379 67.1931 68.4158 66.8051 66.9868L59.2199 45.27C58.0502 42.0109 56.594 40.3751 54.8454 40.3751C53.0908 40.3751 51.6346 42.1112 50.4649 45.5771L43.1721 67.2939C42.7842 68.5161 42.8856 69.6379 43.4645 70.6595C44.0494 71.4743 45.0221 71.8817 46.3828 71.8817Z" fill="#0E5DFD"/>
<path d="M161.505 130C158.001 130 154.695 129.179 151.586 127.549C148.471 125.92 146.239 123.469 144.878 120.21L116.578 52.9163C115.999 51.0799 115.707 49.2498 115.707 47.4135C115.707 43.3333 117.067 40.2748 119.789 38.2379C122.51 36.1947 125.625 35.1793 129.122 35.1793C131.844 35.1793 134.177 35.9941 136.123 37.6237C138.265 39.0526 139.722 41.0896 140.497 43.7407L157.709 92.9843C158.682 95.6354 160.042 96.9641 161.797 96.9641C163.349 96.9641 164.614 95.6354 165.587 92.9843L181.628 43.7407C182.601 40.889 184.159 38.7455 186.295 37.3166C188.438 35.8938 190.771 35.1793 193.296 35.1793C196.602 35.1793 199.52 36.3012 202.051 38.545C204.772 40.5819 206.133 43.7407 206.133 48.0214C206.133 48.8424 206.133 49.6572 206.133 50.472C206.133 51.0799 205.936 51.901 205.548 52.9163L178.131 120.21C176.771 123.469 174.533 125.92 171.417 127.549C168.505 129.179 165.199 130 161.505 130Z" fill="#0E5DFD"/>
<path d="M256.18 130C243.152 130 232.553 125.713 224.383 117.152C216.41 108.383 212.423 96.7573 212.423 82.2794C212.423 67.8016 216.314 56.3822 224.09 48.0214C232.064 39.46 242.466 35.1793 255.303 35.1793C264.446 35.1793 272.419 38.545 279.222 45.27C280.004 42.8257 281.46 40.7825 283.597 39.1529C285.739 37.5234 288.264 36.7086 291.182 36.7086C295.073 36.7086 298.182 37.9308 300.516 40.3751C303.046 42.6188 304.312 45.3765 304.312 48.6356V118.067C304.312 121.533 303.046 124.391 300.516 126.634C298.182 128.878 295.073 130 291.182 130C284.767 130 280.78 127.042 279.222 121.125C272.998 127.042 265.317 130 256.18 130ZM258.221 105.225C264.446 105.225 269.405 103.081 273.099 98.8005C276.793 94.313 278.637 88.8101 278.637 82.2794C278.637 75.5544 276.793 70.1519 273.099 66.0717C269.405 61.9916 264.446 59.9547 258.221 59.9547C252.193 59.9547 247.234 61.9916 243.343 66.0717C239.649 70.1519 237.799 75.5544 237.799 82.2794C237.799 88.8101 239.649 94.313 243.343 98.8005C247.234 103.081 252.193 105.225 258.221 105.225Z" fill="#0E5DFD"/>
<path d="M399.804 130C396.11 130 392.995 128.878 390.471 126.634C388.137 124.391 386.973 121.533 386.973 118.067V80.7502C386.973 73.2104 385.314 67.8016 382.014 64.5425C378.899 61.2771 375.008 59.6476 370.341 59.6476C365.477 59.6476 361.395 61.2771 358.094 64.5425C354.979 67.8016 353.034 71.5746 352.258 75.8553V116.845C352.258 120.31 350.993 123.269 348.468 125.713C346.135 127.957 343.216 129.079 339.713 129.079C336.019 129.079 332.904 127.957 330.379 125.713C327.849 123.469 326.584 120.618 326.584 117.152V48.6356C326.584 45.3765 327.753 42.6188 330.087 40.3751C332.617 37.9308 335.822 36.7086 339.713 36.7086C342.822 36.7086 345.448 37.6237 347.591 39.46C349.727 41.0896 351.184 43.2331 351.965 45.8842C357.217 38.7455 365.19 35.1793 375.885 35.1793C386.776 35.1793 395.621 38.545 402.43 45.27C409.234 52.0013 412.641 62.7061 412.641 77.3908V118.681C412.641 121.94 411.376 124.698 408.846 126.941C406.512 128.978 403.499 130 399.804 130Z" fill="#0E5DFD"/>
<path d="M475.46 130C467.296 130 459.609 128.057 452.418 124.184C445.417 120.31 439.778 114.701 435.499 107.362C431.22 100.023 429.083 91.2544 429.083 81.0573C429.274 66.9868 433.649 55.8746 442.207 47.7206C450.765 39.3598 461.853 35.1793 475.46 35.1793C480.712 35.1793 485.868 35.7873 490.923 37.0157C495.978 38.2379 500.358 40.4816 504.052 43.7407C506.965 46.1913 508.427 49.3501 508.427 53.2234C508.427 56.4888 507.257 59.4407 504.924 62.0919C502.787 64.743 500.066 66.0717 496.76 66.0717C494.617 66.0717 492.672 65.4575 490.923 64.2354C488.005 62.6058 485.379 61.4839 483.045 60.8697C480.909 60.2618 478.48 59.9547 475.752 59.9547C469.337 59.9547 464.085 61.8913 460.003 65.7646C455.921 69.6379 453.874 74.8399 453.874 81.3644C453.874 88.9104 456.112 94.8207 460.588 99.1076C465.058 103.181 470.31 105.225 476.337 105.225C483.147 105.225 489.562 102.574 495.59 97.2712C497.923 95.4349 500.161 94.5135 502.298 94.5135C505.407 94.5135 508.033 95.8423 510.176 98.4934C512.509 101.145 513.679 104.203 513.679 107.669C513.679 109.098 513.386 110.728 512.801 112.564C512.217 114.193 511.148 115.823 509.591 117.459C504.339 121.94 498.699 125.105 492.672 126.941C486.841 128.978 481.106 130 475.46 130Z" fill="#0E5DFD"/>
<path d="M571.275 130C558.05 130 546.867 125.92 537.73 117.76C528.778 109.405 524.308 97.9857 524.308 83.5079C524.308 68.4158 528.682 56.589 537.437 48.0214C546.377 39.46 557.561 35.1793 570.983 35.1793C580.508 35.1793 588.385 37.0157 594.61 40.6822C600.829 44.3549 605.496 49.043 608.611 54.7527C611.72 60.4623 613.278 66.4791 613.278 72.7967C613.278 83.4013 608.802 88.7036 599.862 88.7036H551.438C549.88 88.7036 549.104 89.7252 549.104 91.7621C549.104 96.4565 551.533 100.223 556.397 103.081C561.452 105.732 567.092 107.055 573.316 107.055C577.202 107.055 581.093 106.547 584.984 105.525C588.869 104.303 592.277 102.574 595.195 100.33C597.134 98.9008 599.176 98.1863 601.318 98.1863C604.236 98.1863 606.665 99.3082 608.611 101.552C610.747 103.796 611.822 106.447 611.822 109.505C611.822 113.172 609.971 116.644 606.277 119.903C602.774 122.962 597.624 125.412 590.814 127.242C584.202 129.079 577.691 130 571.275 130ZM586.44 70.9666C586.828 70.9666 587.317 70.8601 587.902 70.6595C588.678 70.4527 589.066 69.7382 589.066 68.5161C589.066 65.4575 587.216 62.7061 583.522 60.2618C580.024 57.6106 575.453 56.2819 569.813 56.2819C563.786 56.2819 558.826 57.7109 554.935 60.5626C551.241 63.2138 549.397 65.9715 549.397 68.8232C549.397 70.2521 550.173 70.9666 551.73 70.9666H586.44Z" fill="#0E5DFD"/>
<path d="M674.548 130C670.855 130 667.741 128.84 665.217 126.531C662.688 124.223 661.423 121.233 661.423 117.575V21.0905C661.423 17.4324 662.688 14.4431 665.217 12.1346C667.741 9.82606 670.855 8.66587 674.548 8.66587C678.438 8.66587 681.546 9.82606 683.879 12.1346C686.408 14.4431 687.673 17.4324 687.673 21.0905V46.514C687.673 49.7873 688.544 51.4211 690.292 51.4211C691.271 51.4211 692.339 50.7463 693.502 49.4026L727.622 13.2889C730.73 10.2108 734.035 8.66587 737.537 8.66587C741.23 8.66587 744.434 9.92077 747.16 12.4246C749.881 14.9285 751.241 17.9118 751.241 21.3806C751.241 24.4586 749.976 27.2525 747.453 29.7564L712.748 64.1358L751.533 108.045C752.894 109.389 753.765 110.833 754.158 112.378C754.546 113.917 754.743 115.456 754.743 116.995C754.743 120.464 753.383 123.548 750.656 126.241C747.936 128.745 744.828 130 741.326 130C737.633 130 734.232 128.455 731.118 125.377L694.964 81.4675L692.625 83.7761C690.489 85.8952 689.129 87.9196 688.544 89.8434C687.96 91.7671 687.673 94.1763 687.673 97.0649V117.575C687.673 121.233 686.408 124.223 683.879 126.531C681.546 128.84 678.438 130 674.548 130Z" fill="#9F67FF"/>
<path d="M783.1 130C779.407 130 776.292 128.94 773.769 126.821C771.245 124.702 769.98 122.003 769.98 118.73V53.1554C769.98 50.0774 771.144 47.4729 773.477 45.3538C776 43.0453 779.21 41.891 783.1 41.891C786.99 41.891 790.002 43.0453 792.138 45.3538C794.471 47.4729 795.64 50.1721 795.64 53.4455V118.44C795.64 121.719 794.375 124.507 791.846 126.821C789.513 128.94 786.602 130 783.1 130Z" fill="#83C403"/>
<path d="M856.929 130C843.899 130 833.405 125.951 825.434 117.865C817.655 109.584 813.771 98.6039 813.771 84.9303C813.771 71.2567 817.559 60.4717 825.142 52.5753C832.916 44.4896 843.225 40.4467 856.052 40.4467C864.41 40.4467 871.897 43.43 878.508 49.4026V11.5545C878.508 8.28112 879.671 5.58783 882.004 3.46872C884.337 1.16019 887.349 0 891.048 0C894.932 0 898.046 1.16019 900.379 3.46872C902.903 5.58783 904.168 8.18641 904.168 11.2704V118.73C904.168 122.003 902.903 124.702 900.379 126.821C898.046 128.94 894.932 130 891.048 130C884.826 130 880.84 127.301 879.092 121.908C873.061 127.301 865.675 130 856.929 130ZM858.969 106.601C864.804 106.601 869.469 104.577 872.965 100.534C876.658 96.2954 878.508 91.0982 878.508 84.9303C878.508 78.5789 876.658 73.4764 872.965 69.623C869.469 65.7695 864.804 63.8457 858.969 63.8457C852.937 63.8457 848.081 65.7695 844.388 69.623C840.892 73.4764 839.138 78.5789 839.138 84.9303C839.138 91.0982 840.892 96.2954 844.388 100.534C848.081 104.577 852.937 106.601 858.969 106.601Z" fill="#FF6E95"/>
<path d="M956.8 130C943.579 130 932.691 127.301 924.142 121.908C922.394 120.754 921.123 119.404 920.348 117.865C919.572 116.131 919.178 114.497 919.178 112.952C919.178 109.679 920.252 106.696 922.388 103.996C924.721 101.303 927.543 99.9536 930.842 99.9536C932.399 99.9536 933.956 100.338 935.507 101.108C939.009 102.653 942.994 103.996 947.463 105.157C951.938 106.116 956.018 106.601 959.717 106.601C966.906 106.601 970.504 104.961 970.504 101.688C970.504 99.7641 969.633 98.1245 967.885 96.7749C966.131 95.2359 962.044 94.1763 955.63 93.5962C953.107 93.4068 949.802 93.022 945.721 92.4419C941.831 91.8678 937.941 90.8082 934.057 89.2633C930.168 87.5348 926.862 85.031 924.142 81.7576C921.612 78.4783 920.348 74.0506 920.348 68.4687C920.348 59.8029 923.653 52.966 930.263 47.9583C936.873 42.9506 945.715 40.4467 956.8 40.4467C963.213 40.4467 969.239 41.1215 974.883 42.4652C980.711 43.8148 985.085 45.8392 988.002 48.5325C990.722 51.0363 992.083 53.925 992.083 57.1984C992.083 60.087 991.015 62.6915 988.879 65C986.737 67.3085 984.017 68.4687 980.712 68.4687C978.958 68.4687 977.311 68.084 975.754 67.3085C973.421 65.7695 970.408 64.6153 966.709 63.8457C963.213 63.0762 959.616 62.6915 955.929 62.6915C948.537 62.6915 944.844 64.2305 944.844 67.3085C944.844 68.6581 945.524 69.913 946.884 71.0673C948.441 72.0322 951.842 72.8964 957.092 73.6659C960.397 74.0506 964.186 74.6307 968.463 75.4002C972.741 75.9744 976.822 77.1346 980.712 78.863C984.792 80.408 988.199 83.0066 990.919 86.6647C993.64 90.3228 995 95.3306 995 101.688C995 110.354 991.504 117.285 984.506 122.488C977.508 127.496 968.266 130 956.8 130Z" fill="#FC9700"/>
</svg>
