<svg width="233" height="115" viewBox="0 0 233 115" fill="none" xmlns="http://www.w3.org/2000/svg">
<g clip-path="url(#clip0_2633_8271)">
<path d="M137.721 0H95.2785C88.2211 0 82.5 5.72114 82.5 12.7785V55.2215C82.5 62.2789 88.2211 68 95.2785 68H137.721C144.779 68 150.5 62.2789 150.5 55.2215V12.7785C150.5 5.72114 144.779 0 137.721 0Z" fill="#0E5DFD"/>
<path d="M110.712 13.1614V25.3173H122.289V13.1614H110.712ZM107.817 28.2115H95.6614V39.7886H107.817V28.2115ZM110.712 39.7886V28.2115H122.289V39.7886H110.712ZM107.817 42.6829H95.6614V47.6032C95.6614 49.5221 96.4237 51.3626 97.7807 52.7195C99.1376 54.0765 100.978 54.8388 102.897 54.8388H107.817V42.6829ZM110.712 54.8388H122.289V42.6829H110.712V54.8388ZM125.183 54.8388V42.6829H137.339V47.6032C137.339 49.5221 136.576 51.3626 135.219 52.7195C133.863 54.0765 132.022 54.8388 130.103 54.8388H125.183ZM137.339 28.2115V39.7886H125.183V28.2115H137.339ZM137.339 25.3173V20.397C137.339 18.478 136.576 16.6376 135.219 15.2807C133.863 13.9237 132.022 13.1614 130.103 13.1614H125.183V25.3173H137.339Z" fill="#83C403"/>
</g>
<path d="M179.106 81.2585V82.984H180.782V81.2585H179.106ZM178.687 83.3948H176.928V85.038H178.687V83.3948ZM179.106 85.038V83.3948H180.782V85.038H179.106ZM178.687 85.4489H176.928V86.1472C176.928 86.4196 177.038 86.6809 177.235 86.8735C177.431 87.0661 177.697 87.1743 177.975 87.1743H178.687V85.4489ZM179.106 87.1743H180.782V85.4489H179.106V87.1743ZM181.2 87.1743V85.4489H182.96V86.1472C182.96 86.4196 182.849 86.6809 182.653 86.8735C182.457 87.0661 182.19 87.1743 181.912 87.1743H181.2ZM182.96 83.3948V85.038H181.2V83.3948H182.96ZM182.96 82.984V82.2856C182.96 82.0132 182.849 81.752 182.653 81.5593C182.457 81.3668 182.19 81.2585 181.912 81.2585H181.2V82.984H182.96Z" fill="#83C403"/>
<path d="M8.29463 109.742C7.60003 109.742 6.92676 109.473 6.27481 108.937C5.66688 108.401 5.36157 107.708 5.36157 106.859C5.36157 106.502 5.42689 106.122 5.55756 105.72L13.7687 83.6713C14.0727 82.868 14.5727 82.2637 15.2673 81.8628C15.9619 81.4604 16.6791 81.2585 17.4177 81.2585C18.2003 81.2585 18.9389 81.4604 19.6335 81.8628C20.3721 82.2637 20.8934 82.868 21.1974 83.6713L29.9952 105.586C30.0819 105.765 30.1246 105.943 30.1246 106.122C30.1246 106.3 30.1246 106.48 30.1246 106.659C30.1246 107.597 29.8205 108.334 29.2125 108.87C28.6046 109.407 27.9313 109.674 27.1928 109.674C26.6716 109.674 26.1502 109.518 25.629 109.205C25.1503 108.937 24.8036 108.491 24.5864 107.864L22.6958 102.637C22.6532 102.369 22.4785 102.236 22.1746 102.236H13.3781C13.0728 102.236 12.8782 102.369 12.7915 102.637L10.9664 107.932C10.6624 108.513 10.2718 108.959 9.79313 109.272C9.31585 109.585 8.81589 109.742 8.29463 109.742ZM15.7232 97.0079H19.5682C19.8295 97.0079 20.0241 96.9186 20.1548 96.7401C20.3281 96.5163 20.3721 96.2485 20.2854 95.9354L18.5909 91.1773C18.3296 90.4632 18.0043 90.1048 17.6137 90.1048C17.2217 90.1048 16.8964 90.4852 16.6351 91.2445L15.006 96.0027C14.9193 96.2705 14.942 96.5163 15.0713 96.7401C15.2019 96.9186 15.4192 97.0079 15.7232 97.0079Z" fill="#0E5DFD"/>
<path d="M41.4407 109.742C40.6579 109.742 39.9194 109.562 39.2249 109.205C38.529 108.848 38.0304 108.311 37.7263 107.597L31.4043 92.8525C31.2749 92.4501 31.2097 92.0492 31.2097 91.6468C31.2097 90.7529 31.5135 90.0827 32.1216 89.6365C32.7295 89.1888 33.4253 88.9663 34.2065 88.9663C34.8146 88.9663 35.3358 89.1448 35.7705 89.5019C36.249 89.815 36.5745 90.2613 36.7477 90.8421L40.5927 101.631C40.8101 102.212 41.1139 102.503 41.5059 102.503C41.8527 102.503 42.1353 102.212 42.3526 101.631L45.9361 90.8421C46.1534 90.2173 46.5015 89.7477 46.9787 89.4346C47.4574 89.1229 47.9786 88.9663 48.5426 88.9663C49.2812 88.9663 49.933 89.2121 50.4985 89.7037C51.1063 90.15 51.4103 90.8421 51.4103 91.78C51.4103 91.9599 51.4103 92.1384 51.4103 92.317C51.4103 92.4501 51.3663 92.6301 51.2797 92.8525L45.1549 107.597C44.8511 108.311 44.3511 108.848 43.655 109.205C43.0045 109.562 42.2659 109.742 41.4407 109.742Z" fill="#0E5DFD"/>
<path d="M62.5905 109.742C59.6801 109.742 57.3124 108.802 55.4872 106.927C53.7061 105.005 52.8154 102.458 52.8154 99.2859C52.8154 96.1139 53.6847 93.6119 55.4218 91.78C57.2031 89.9042 59.5269 88.9663 62.3946 88.9663C64.4371 88.9663 66.2182 89.7037 67.7379 91.1772C67.9126 90.6416 68.2379 90.194 68.7153 89.8369C69.1938 89.4799 69.7579 89.3014 70.4097 89.3014C71.2789 89.3014 71.9735 89.5692 72.4949 90.1047C73.0601 90.5963 73.3429 91.2005 73.3429 91.9146V107.127C73.3429 107.887 73.0601 108.513 72.4949 109.004C71.9735 109.496 71.2789 109.742 70.4097 109.742C68.9767 109.742 68.086 109.094 67.7379 107.797C66.3475 109.094 64.6316 109.742 62.5905 109.742ZM63.0464 104.313C64.4371 104.313 65.5449 103.844 66.3701 102.906C67.1953 101.923 67.6072 100.717 67.6072 99.2859C67.6072 97.8125 67.1953 96.6288 66.3701 95.7349C65.5449 94.8409 64.4371 94.3946 63.0464 94.3946C61.6998 94.3946 60.592 94.8409 59.7228 95.7349C58.8976 96.6288 58.4843 97.8125 58.4843 99.2859C58.4843 100.717 58.8976 101.923 59.7228 102.906C60.592 103.844 61.6998 104.313 63.0464 104.313Z" fill="#0E5DFD"/>
<path d="M94.6753 109.742C93.85 109.742 93.1542 109.496 92.5903 109.004C92.0689 108.513 91.8089 107.887 91.8089 107.127V98.9509C91.8089 97.299 91.4383 96.1139 90.7011 95.3998C90.0052 94.6844 89.136 94.3273 88.0934 94.3273C87.0068 94.3273 86.0949 94.6844 85.3575 95.3998C84.6616 96.1139 84.2271 96.9406 84.0538 97.8785V106.859C84.0538 107.619 83.7712 108.267 83.2071 108.802C82.6859 109.294 82.0338 109.54 81.2513 109.54C80.4261 109.54 79.7302 109.294 79.1661 108.802C78.6009 108.311 78.3184 107.686 78.3184 106.927V91.9146C78.3184 91.2005 78.5795 90.5963 79.1009 90.1047C79.6661 89.5692 80.3821 89.3014 81.2513 89.3014C81.9458 89.3014 82.5325 89.5019 83.0112 89.9042C83.4884 90.2613 83.8138 90.7309 83.9883 91.3118C85.1616 89.7477 86.9427 88.9663 89.3319 88.9663C91.7649 88.9663 93.7408 89.7037 95.2619 91.1772C96.7819 92.652 97.543 94.9975 97.543 98.2149V107.262C97.543 107.976 97.2604 108.58 96.6952 109.071C96.1738 109.518 95.5007 109.742 94.6753 109.742Z" fill="#0E5DFD"/>
<path d="M111.576 109.742C109.753 109.742 108.035 109.316 106.429 108.467C104.865 107.619 103.605 106.39 102.649 104.782C101.693 103.174 101.216 101.252 101.216 99.0182C101.259 95.9354 102.236 93.5007 104.148 91.7141C106.06 89.8823 108.537 88.9663 111.576 88.9663C112.75 88.9663 113.901 89.0995 115.031 89.3687C116.16 89.6365 117.138 90.128 117.964 90.8421C118.614 91.3791 118.941 92.0711 118.941 92.9198C118.941 93.6352 118.68 94.282 118.158 94.8629C117.681 95.4437 117.073 95.7349 116.335 95.7349C115.856 95.7349 115.421 95.6003 115.031 95.3325C114.379 94.9755 113.792 94.7297 113.271 94.5951C112.794 94.4619 112.251 94.3946 111.642 94.3946C110.209 94.3946 109.035 94.8189 108.123 95.6676C107.212 96.5162 106.754 97.656 106.754 99.0854C106.754 100.739 107.254 102.034 108.254 102.973C109.253 103.866 110.426 104.313 111.772 104.313C113.294 104.313 114.727 103.733 116.073 102.571C116.595 102.168 117.094 101.967 117.572 101.967C118.266 101.967 118.853 102.258 119.332 102.838C119.853 103.419 120.114 104.089 120.114 104.849C120.114 105.162 120.049 105.519 119.918 105.921C119.788 106.278 119.549 106.635 119.201 106.994C118.028 107.976 116.768 108.669 115.421 109.071C114.119 109.518 112.838 109.742 111.576 109.742Z" fill="#0E5DFD"/>
<path d="M132.981 109.742C130.027 109.742 127.528 108.848 125.487 107.06C123.487 105.229 122.489 102.727 122.489 99.5552C122.489 96.2485 123.466 93.6572 125.422 91.78C127.419 89.9042 129.917 88.9663 132.916 88.9663C135.044 88.9663 136.803 89.3687 138.194 90.172C139.583 90.9767 140.626 92.0039 141.322 93.2549C142.016 94.5058 142.364 95.8241 142.364 97.2083C142.364 99.5317 141.364 100.694 139.367 100.694H128.549C128.201 100.694 128.028 100.917 128.028 101.364C128.028 102.392 128.571 103.217 129.657 103.844C130.787 104.424 132.046 104.714 133.437 104.714C134.305 104.714 135.174 104.603 136.043 104.379C136.911 104.111 137.673 103.733 138.325 103.241C138.758 102.928 139.214 102.771 139.692 102.771C140.344 102.771 140.887 103.017 141.322 103.509C141.799 104 142.039 104.581 142.039 105.251C142.039 106.055 141.625 106.815 140.8 107.529C140.018 108.2 138.867 108.736 137.346 109.137C135.869 109.54 134.414 109.742 132.981 109.742ZM136.369 96.8073C136.455 96.8073 136.565 96.784 136.695 96.7401C136.869 96.6948 136.955 96.5382 136.955 96.2704C136.955 95.6003 136.542 94.9975 135.717 94.4619C134.935 93.881 133.914 93.5899 132.654 93.5899C131.308 93.5899 130.2 93.903 129.331 94.5278C128.505 95.1087 128.094 95.7129 128.094 96.3377C128.094 96.6508 128.267 96.8073 128.615 96.8073H136.369Z" fill="#0E5DFD"/>
<path d="M156.051 109.742C155.226 109.742 154.531 109.488 153.967 108.982C153.402 108.476 153.119 107.821 153.119 107.019V85.8795C153.119 85.078 153.402 84.423 153.967 83.9172C154.531 83.4114 155.226 83.1572 156.051 83.1572C156.92 83.1572 157.615 83.4114 158.136 83.9172C158.701 84.423 158.983 85.078 158.983 85.8795V91.4498C158.983 92.167 159.178 92.5249 159.569 92.5249C159.787 92.5249 160.026 92.3771 160.286 92.0827L167.908 84.1701C168.602 83.4957 169.34 83.1572 170.123 83.1572C170.948 83.1572 171.664 83.4322 172.273 83.9808C172.88 84.5294 173.184 85.183 173.184 85.943C173.184 86.6174 172.902 87.2296 172.338 87.7782L164.585 95.3107L173.249 104.931C173.553 105.226 173.748 105.542 173.836 105.881C173.923 106.218 173.967 106.555 173.967 106.892C173.967 107.652 173.663 108.328 173.054 108.918C172.446 109.467 171.752 109.742 170.969 109.742C170.144 109.742 169.384 109.403 168.689 108.729L160.612 99.1082L160.09 99.6139C159.613 100.078 159.309 100.522 159.178 100.943C159.048 101.365 158.983 101.893 158.983 102.526V107.019C158.983 107.821 158.701 108.476 158.136 108.982C157.615 109.488 156.92 109.742 156.051 109.742Z" fill="#9F67FF"/>
<path d="M180.301 109.742C179.476 109.742 178.78 109.509 178.217 109.045C177.653 108.581 177.37 107.989 177.37 107.272V92.9048C177.37 92.2304 177.63 91.6598 178.152 91.1955C178.715 90.6897 179.432 90.4368 180.301 90.4368C181.17 90.4368 181.843 90.6897 182.32 91.1955C182.842 91.6598 183.103 92.2512 183.103 92.9684V107.209C183.103 107.927 182.82 108.538 182.255 109.045C181.734 109.509 181.084 109.742 180.301 109.742Z" fill="#83C403"/>
<path d="M196.794 109.742C193.883 109.742 191.539 108.855 189.759 107.083C188.021 105.269 187.153 102.863 187.153 99.8668C187.153 96.871 187.999 94.508 189.693 92.7779C191.43 91.0063 193.733 90.1205 196.598 90.1205C198.466 90.1205 200.138 90.7741 201.615 92.0827V83.7901C201.615 83.0729 201.875 82.4828 202.396 82.0185C202.917 81.5127 203.59 81.2585 204.416 81.2585C205.284 81.2585 205.98 81.5127 206.501 82.0185C207.065 82.4828 207.347 83.0522 207.347 83.7279V107.272C207.347 107.99 207.065 108.581 206.501 109.045C205.98 109.509 205.284 109.742 204.416 109.742C203.026 109.742 202.136 109.15 201.745 107.969C200.398 109.15 198.748 109.742 196.794 109.742ZM197.25 104.615C198.554 104.615 199.596 104.171 200.377 103.286C201.202 102.357 201.615 101.218 201.615 99.8668C201.615 98.4753 201.202 97.3573 200.377 96.513C199.596 95.6687 198.554 95.2472 197.25 95.2472C195.903 95.2472 194.818 95.6687 193.993 96.513C193.212 97.3573 192.82 98.4753 192.82 99.8668C192.82 101.218 193.212 102.357 193.993 103.286C194.818 104.171 195.903 104.615 197.25 104.615Z" fill="#FF6E95"/>
<path d="M219.105 109.742C216.151 109.742 213.719 109.15 211.809 107.969C211.419 107.716 211.135 107.42 210.962 107.083C210.788 106.703 210.7 106.345 210.7 106.006C210.7 105.289 210.94 104.636 211.418 104.044C211.939 103.454 212.569 103.158 213.306 103.158C213.654 103.158 214.002 103.243 214.348 103.411C215.131 103.75 216.021 104.044 217.019 104.298C218.019 104.509 218.93 104.615 219.757 104.615C221.363 104.615 222.166 104.256 222.166 103.538C222.166 103.117 221.972 102.758 221.581 102.462C221.189 102.125 220.276 101.893 218.844 101.765C218.28 101.724 217.542 101.64 216.63 101.513C215.761 101.387 214.892 101.155 214.024 100.816C213.156 100.437 212.417 99.8888 211.809 99.1717C211.244 98.4531 210.962 97.483 210.962 96.26C210.962 94.3613 211.7 92.8634 213.177 91.7662C214.653 90.669 216.629 90.1204 219.105 90.1204C220.538 90.1204 221.884 90.2682 223.145 90.5626C224.446 90.8583 225.423 91.3019 226.075 91.892C226.683 92.4406 226.986 93.0735 226.986 93.7907C226.986 94.4236 226.747 94.9942 226.271 95.5C225.793 96.0058 225.186 96.26 224.446 96.26C224.055 96.26 223.687 96.1757 223.339 96.0058C222.818 95.6686 222.145 95.4157 221.319 95.2471C220.538 95.0785 219.734 94.9942 218.91 94.9942C217.259 94.9942 216.434 95.3314 216.434 96.0058C216.434 96.3015 216.586 96.5765 216.89 96.8294C217.238 97.0408 217.997 97.2301 219.17 97.3987C219.909 97.483 220.755 97.6101 221.71 97.7787C222.666 97.9045 223.577 98.1588 224.446 98.5374C225.358 98.8759 226.12 99.4454 226.727 100.247C227.335 101.048 227.639 102.146 227.639 103.538C227.639 105.437 226.857 106.956 225.295 108.096C223.731 109.193 221.666 109.742 219.105 109.742Z" fill="#FC9700"/>
<defs>
<clipPath id="clip0_2633_8271">
<rect width="68" height="68" fill="white" transform="translate(82.5)"/>
</clipPath>
</defs>
</svg>
