<svg width="124" height="124" viewBox="0 0 124 124" fill="none" xmlns="http://www.w3.org/2000/svg">
<rect width="124" height="124" rx="23.302" fill="#0E5DFD"/>
<path d="M51.4444 24V46.1667H72.5556V24H51.4444ZM46.1667 51.4444H24V72.5556H46.1667V51.4444ZM51.4444 72.5556V51.4444H72.5556V72.5556H51.4444ZM46.1667 77.8333H24V86.8056C24 90.3049 25.3901 93.661 27.8646 96.1354C30.339 98.6099 33.6951 100 37.1944 100H46.1667V77.8333ZM51.4444 100H72.5556V77.8333H51.4444V100ZM77.8333 100V77.8333H100V86.8056C100 90.3049 98.6099 93.661 96.1354 96.1354C93.661 98.6099 90.3049 100 86.8056 100H77.8333ZM100 51.4444V72.5556H77.8333V51.4444H100ZM100 46.1667V37.1944C100 33.6951 98.6099 30.339 96.1354 27.8646C93.661 25.3901 90.3049 24 86.8056 24H77.8333V46.1667H100Z" fill="#83C403"/>
</svg>
